<?xml version="1.0" encoding="UTF-8" standalone="no"?>
<svg
   xmlns:svg="http://www.w3.org/2000/svg"
   xmlns="http://www.w3.org/2000/svg"
   viewBox="0 0 11.8017 8.8810501"
   x="0px"
   y="0px"
   version="1.1"
   id="svg14"
   width="20"
   height="20"
   style="fill:none">
  <path
     d="M 5.3879,7.61917 C 5.2813,7.71938 5.20727,7.8493 5.17542,7.99209 5.14356,8.13488 5.15534,8.28395 5.20923,8.41996 5.26313,8.55598 5.35664,8.67266 5.47766,8.75488 5.59867,8.83709 5.7416,8.88105 5.8879,8.88105 6.0342,8.88105 6.17713,8.83709 6.29814,8.75488 6.41915,8.67266 6.51267,8.55598 6.56656,8.41996 6.62046,8.28395 6.63224,8.13488 6.60038,7.99209 6.56852,7.8493 6.49449,7.71938 6.3879,7.61917 6.25142,7.49409 6.07302,7.4247 5.8879,7.4247 c -0.18513,0 -0.36353,0.06939 -0.5,0.19447 z"
     id="path2"
     style="fill:#386ec1" />
  <path
     d="m 7.69788,6.83917 c 0.13513,-3.4e-4 0.26461,-0.05428 0.36,-0.15 0.09225,-0.09515 0.14383,-0.22248 0.14383,-0.355 0,-0.13253 -0.05158,-0.25985 -0.14383,-0.355 C 7.47484,5.42742 6.70158,5.12161 5.89887,5.12534 5.09616,5.12906 4.32577,5.44203 3.74788,5.99917 3.65372,6.09332 3.60083,6.22102 3.60083,6.35417 c 0,0.13315 0.05289,0.26084 0.14705,0.355 0.09415,0.09415 0.22184,0.14704 0.355,0.14704 0.13315,0 0.26084,-0.05289 0.355,-0.14704 0.39014,-0.36997 0.90733,-0.5762 1.445,-0.5762 0.53766,0 1.05485,0.20623 1.445,0.5762 0.0955,0.0869 0.22092,0.13348 0.35,0.13 z"
     id="path4"
     style="fill:#386ec1" />
  <path
     d="m 0.147899,3.08917 c 0.093465,0.09161 0.219124,0.14293 0.35,0.14293 0.130877,0 0.256536,-0.05132 0.35,-0.14293 C 2.18831,1.75184 4.00445,1.00079 5.8979,1.00079 c 1.89345,0 3.70959,0.75105 5.05,2.08838 0.0462,0.04529 0.1009,0.08098 0.161,0.105 0.0601,0.02403 0.1243,0.03593 0.189,0.035 0.0663,0.0017 0.1323,-0.0098 0.1941,-0.03383 0.0618,-0.02404 0.1182,-0.06013 0.1659,-0.10617 0.0922,-0.09515 0.1438,-0.22247 0.1438,-0.355 0,-0.13253 -0.0516,-0.25985 -0.1438,-0.355 C 10.1301,0.855588 8.06054,0 5.9029,0 3.74526,0 1.67567,0.855588 0.147899,2.37917 0.101035,2.42565 0.0638378,2.48095 0.0384535,2.54188 0.0130691,2.60281 0,2.66816 0,2.73417 0,2.80018 0.0130691,2.86553 0.0384535,2.92646 0.0638378,2.98739 0.101035,3.04269 0.147899,3.08917 Z"
     id="path6"
     style="fill:#ddd" />
  <path
     d="M 9.49788,4.99918 C 9.63301,4.99884 9.76249,4.9449 9.85787,4.84918 9.95012,4.75403 10.0017,4.6267 10.0017,4.49417 10.0017,4.36165 9.95012,4.23432 9.85787,4.13917 8.80494,3.11239 7.39035,2.54104 5.91968,2.54852 4.449,2.556 3.0403,3.14173 1.99787,4.17917 1.95101,4.22566 1.91381,4.28096 1.88843,4.34189 1.86304,4.40282 1.84998,4.46817 1.84998,4.53417 c 0,0.06601 0.01306,0.13136 0.03845,0.19229 0.02538,0.06093 0.06258,0.11623 0.10944,0.16272 0.09347,0.09161 0.21913,0.14292 0.35,0.14292 0.13088,0 0.25654,-0.05131 0.35,-0.14292 0.86374,-0.85859 2.03213,-1.34051 3.25,-1.34051 1.21788,0 2.38627,0.48192 3.25,1.34051 0.08528,0.06849 0.19067,0.10713 0.30001,0.11 z"
     id="path8"
     style="fill:#386ec1" />
</svg>
