<?xml version="1.0" encoding="UTF-8"?>
<svg width="564px" height="219px" viewBox="0 0 564 219" version="1.1" xmlns="http://www.w3.org/2000/svg" xmlns:xlink="http://www.w3.org/1999/xlink">
    <!-- Generator: Sketch 51.3 (57544) - http://www.bohemiancoding.com/sketch -->
    <title>A4</title>
    <desc>Created with Sketch.</desc>
    <defs></defs>
    <g id="A4" stroke="none" stroke-width="1" fill="none" fill-rule="evenodd">
        <g id="Original">
            <g id="font" transform="translate(236.709849, 52.500000)" fill="#343534">
                <path d="M0.331953674,109 L15.1851869,109 L15.1851869,29.6082525 L0.331953674,29.6082525 L0.331953674,109 Z M0,14.4792415 L15.5137533,14.4792415 L15.5137533,0 L0,0 L0,14.4792415 Z" id="Fill-19"></path>
                <path d="M49.600607,93.5345332 L49.600607,80.3395347 C49.600607,78.3848934 49.2735898,77.1093279 48.6161842,76.5121693 C47.9587786,75.9146763 46.6439674,75.6157626 44.6717505,75.6157626 L36.294043,75.6157626 C26.1126842,75.6157626 21.0186335,70.8364876 21.0186335,61.2799437 L21.0186335,44.5006561 C21.0186335,34.834778 26.1126842,30 36.294043,30 L48.2857957,30 C58.5784078,30 63.7263995,34.834778 63.7263995,44.5006561 L63.7263995,52.1560556 L49.2735898,52.1560556 L49.2735898,45.9654668 C49.2735898,44.0104912 48.9432014,42.73526 48.2857957,42.137767 C47.6283901,41.5426145 46.3169502,41.2416947 44.3447334,41.2416947 L40.403671,41.2416947 C38.4314541,41.2416947 37.1166429,41.5426145 36.4592373,42.137767 C35.8018316,42.73526 35.4748145,44.0104912 35.4748145,45.9654668 L35.4748145,59.6502959 C35.4748145,61.6056058 35.8018316,62.8825088 36.4592373,63.47833 C37.1166429,64.0774947 38.4314541,64.3740679 40.403671,64.3740679 L48.9432014,64.3740679 C59.0166782,64.3740679 64.0567879,69.2091803 64.0567879,78.8727179 L64.0567879,95.1638467 C64.0567879,104.722731 58.9627372,109.5 48.7780071,109.5 L36.6244315,109.5 C26.4397014,109.5 21.349022,104.722731 21.349022,95.1638467 L21.349022,87.34361 L35.8018316,87.34361 L35.8018316,93.5345332 C35.8018316,95.4895088 36.1322201,96.7667462 36.7896257,97.3639048 C37.44366,97.9613977 38.7584713,98.2603114 40.7306881,98.2603114 L44.6717505,98.2603114 C46.6439674,98.2603114 47.9587786,97.9613977 48.6161842,97.3639048 C49.2735898,96.7667462 49.600607,95.4895088 49.600607,93.5345332" id="Fill-20"></path>
                <path d="M102.113827,93.0460401 L102.113827,46.4536255 C102.113827,44.5006561 101.786342,43.1966703 101.134714,42.5456805 C100.486427,41.8926846 99.1831698,41.5670225 97.2282843,41.5670225 L88.2759111,41.5670225 C86.3210256,41.5670225 85.0445021,41.8926846 84.4463405,42.5456805 C83.8515207,43.1966703 83.5507691,44.5006561 83.5507691,46.4536255 L83.5507691,93.0460401 C83.5507691,95.00135 83.8515207,96.3050015 84.4463405,96.9559913 C85.0445021,97.6073154 86.3210256,97.9326432 88.2759111,97.9326432 L97.2282843,97.9326432 C99.1831698,97.9326432 100.486427,97.6073154 101.134714,96.9559913 C101.786342,96.3050015 102.113827,95.00135 102.113827,93.0460401 Z M84.0419967,30 L101.462199,30 C111.557428,30 116.603372,34.834778 116.603372,44.5006561 L116.603372,95.1638467 C116.603372,104.722731 111.557428,109.5 101.462199,109.5 L84.0419967,109.5 C74.0537013,109.5 69.0612245,104.722731 69.0612245,95.1638467 L69.0612245,44.5006561 C69.0612245,34.834778 74.0537013,30 84.0419967,30 Z" id="Fill-21"></path>
                <path d="M155.661298,93.0460401 L155.661298,46.4536255 C155.661298,44.5006561 155.337155,43.1966703 154.685526,42.5456805 C154.033898,41.8926846 152.730641,41.5670225 150.775755,41.5670225 L141.823382,41.5670225 C139.868497,41.5670225 138.591973,41.8926846 137.997153,42.5456805 C137.398992,43.1966703 137.101582,44.5006561 137.101582,46.4536255 L137.101582,93.0460401 C137.101582,95.00135 137.398992,96.3050015 137.997153,96.9559913 C138.591973,97.6073154 139.868497,97.9326432 141.823382,97.9326432 L150.775755,97.9326432 C152.730641,97.9326432 154.033898,97.6073154 154.685526,96.9559913 C155.337155,96.3050015 155.661298,95.00135 155.661298,93.0460401 Z M137.589468,30 L155.00967,30 C165.104899,30 170.150843,34.834778 170.150843,44.5006561 L170.150843,95.1638467 C170.150843,104.722731 165.104899,109.5 155.00967,109.5 L137.589468,109.5 C127.601172,109.5 122.608696,104.722731 122.608696,95.1638467 L122.608696,44.5006561 C122.608696,34.834778 127.601172,30 137.589468,30 Z" id="Fill-22"></path>
                <polygon id="Fill-23" points="177.657498 109.5 192.170364 109.5 192.170364 0.5 177.657498 0.5"></polygon>
                <path d="M218.117181,97.6073154 L223.789566,97.6073154 C225.731343,97.6073154 227.107877,97.1746597 227.919168,96.3050015 C228.730459,95.436012 229.132779,93.9712013 229.132779,91.9048854 L229.132779,47.5947803 C229.132779,45.532811 228.730459,44.0659942 227.919168,43.1966703 C227.107877,42.3293526 225.731343,41.8926846 223.789566,41.8926846 L218.117181,41.8926846 C216.172079,41.8926846 214.878669,42.19327 214.230301,42.7887568 C213.581934,43.3882559 213.256088,44.6634871 213.256088,46.6184627 L213.256088,92.8835434 C213.256088,94.8381846 213.581934,96.1157563 214.230301,96.7109088 C214.878669,97.3104079 216.172079,97.6073154 218.117181,97.6073154 Z M229.132779,30 L243.71606,30 L243.71606,109.5 L229.132779,109.5 L229.132779,103.14658 C227.729645,107.382193 224.381409,109.5 219.091395,109.5 L213.256088,109.5 C203.537225,109.5 198.676131,104.722731 198.676131,95.1638467 L198.676131,44.5006561 C198.676131,34.834778 203.537225,30 213.256088,30 L219.091395,30 C224.381409,30 227.729645,32.1194784 229.132779,36.3550917 L229.132779,30 Z" id="Fill-24"></path>
                <path d="M278.747116,41.9074577 L267.897961,41.9074577 L267.897961,92.2363268 C267.897961,94.1908752 268.193696,95.4678334 268.788489,96.0631901 C269.379959,96.6602183 270.652616,96.9587323 272.59317,96.9587323 L278.747116,96.9587323 L278.747116,109.5 L268.386422,109.5 C258.238391,109.5 253.167699,104.723775 253.167699,95.1669794 L253.167699,41.9074577 L245.717835,41.9074577 L245.717835,30.0173719 L253.167699,30.0173719 L253.167699,16.5 L267.897961,16.5 L267.897961,30.0173719 L278.747116,30.0173719 L278.747116,41.9074577" id="Fill-25"></path>
                <path d="M295.120843,63.5605814 L312.757319,63.5605814 L312.757319,46.2907945 C312.757319,44.4471592 312.455669,43.1966703 311.859072,42.5456805 C311.259123,41.8926846 309.982138,41.5670225 308.021412,41.5670225 L300.020981,41.5670225 C298.060255,41.5670225 296.753105,41.8926846 296.09953,42.5456805 C295.445954,43.1966703 295.120843,44.4471592 295.120843,46.2907945 L295.120843,63.5605814 Z M295.935298,30 L311.939512,30 C322.172154,30 327.290151,34.834778 327.290151,44.5006561 L327.290151,74.3121112 L295.120843,74.3121112 L295.120843,93.2088711 C295.120843,95.056853 295.445954,96.3050015 296.09953,96.9559913 C296.753105,97.6073154 298.060255,97.9326432 300.020981,97.9326432 L307.532069,97.9326432 C309.489443,97.9326432 310.796593,97.6073154 311.450169,96.9559913 C312.103744,96.3050015 312.428856,95.00135 312.428856,93.0460401 L312.428856,86.5301235 L326.800807,86.5301235 L326.800807,95.1638467 C326.800807,104.722731 321.739789,109.5 311.6144,109.5 L295.935298,109.5 C285.813261,109.5 280.748891,104.722731 280.748891,95.1638467 L280.748891,44.5006561 C280.748891,34.834778 285.813261,30 295.935298,30 Z" id="Fill-26"></path>
            </g>
            <g id="Graphic">
                <polyline id="Fill-27" fill="#487687" points="30.527063 72.1559124 52.8963416 85 86.5767524 65.4712336 64.4305009 52.5 30.527063 72.1559124"></polyline>
                <polyline id="Fill-28" fill="#487687" points="167.031889 67.9670232 189.668146 54.8697615 94.8340728 0 0 54.869091 22.6362568 67.9663527 64.5832548 43.6963194 136.724196 85.5 159.069386 72.5432194 86.9485189 30.7573085 94.8340728 26.1945234 167.031889 67.9670232"></polyline>
                <polyline id="Fill-29" fill="#70A2B4" points="159.141083 72 136.621118 84.8668874 136.621118 124 159.141083 111.133113 159.141083 72"></polyline>
                <polyline id="Fill-30" fill="#70A2B4" points="166.592764 68.0487038 166.592764 116.391773 94.5871875 158.063181 94.5838509 183.854948 166.592764 142.191556 166.592764 151.284296 94.5871875 192.902592 94.5871875 219 189.167702 164.332999 189.167702 55 166.592764 68.0487038"></polyline>
                <polyline id="Fill-31" fill="#396270" points="94.5838509 157.69617 60.5536823 138 60.5536823 163.804499 94.5805055 183.5 94.5838509 157.69617"></polyline>
                <polyline id="Fill-32" fill="#396270" points="52.8494984 85.4363851 30.4356784 72.5851478 30.4356784 155.826079 22.5773271 151.284571 22.5773271 68.0486506 0 55 0 164.333222 94.5838509 219 94.5838509 192.902699 52.8494984 168.780198 52.8494984 85.4363851"></polyline>
            </g>
        </g>
    </g>
</svg>