
<svg xmlns="http://www.w3.org/2000/svg" xml:space="preserve" width="50.595" height="64"><path d="M12.078 4729.355v-.03l35.86 25.42z" style="fill:#100f0d;fill-opacity:1;fill-rule:nonzero;stroke:none;stroke-width:.094967" transform="matrix(.13333 0 0 -.13333 0 673.919)"/><path d="M189.715 5054.39v-49.42c-65.205 0-101.251-18.935-146.472-45.962v-181.344L3.8 4749.71C1.359 4757.772 0 4765.772 0 4773.65v216l10.471 6.301c52.108 31.35 97.081 58.44 179.244 58.44" style="fill:#9b2b2b;fill-opacity:1;fill-rule:nonzero;stroke:none;stroke-width:.094967" transform="matrix(.13333 0 0 -.13333 0 673.919)"/><path d="M379.46 4901.618v-127.97c0-42.564-39.846-89.482-73.297-121.328-37.407-35.675-82.534-66.81-109.684-75.706l-6.764-2.224v45.993c19.768 8.925 54.022 32.185 86.64 63.258 36.912 35.181 59.861 69.653 59.861 90.008v97.328l43.244 30.64" style="fill:maroon;fill-opacity:1;fill-rule:nonzero;stroke:none;stroke-width:.094967" transform="matrix(.13333 0 0 -.13333 0 673.919)"/><path d="M379.46 4989.648v-61.776l-43.244-30.64-102.888-72.927 80.062-56.71c-2.965-8.896-11.398-23.722-27.305-42.441l-96.34 68.263h-.03v61.776l146.501 103.815c-45.22 27.027-81.297 45.961-146.501 45.961v49.421c82.162 0 127.166-27.09 179.273-58.44l10.472-6.302" style="fill:maroon;fill-opacity:1;fill-rule:nonzero;stroke:none;stroke-width:.094967" transform="matrix(.13333 0 0 -.13333 0 673.919)"/><path d="M189.715 4855.224v-61.807l-114.04-80.804c7.908-9.42 17.113-19.15 27.43-28.972 32.587-31.073 66.841-54.333 86.61-63.258v-45.993l-6.735 2.224c-27.15 8.896-72.277 40.03-109.714 75.706-22.022 20.973-46.825 48.495-61.188 77.004l35.86 25.42 98.193 69.561-81.266 57.606v61.746l124.85-88.433" style="fill:#9b2b2b;fill-opacity:1;fill-rule:nonzero;stroke:none;stroke-width:.094967" transform="matrix(.13333 0 0 -.13333 0 673.919)"/></svg>